# WaveFront *.obj file (generated by Autodesk ATF)

mtllib 76ff9e33-2e63-4327-8cdd-8fc1683a7f25.mtl

g Body1

v 0.000000 0.000000 2.060000
v 0.000000 0.051649 1.601607
v 0.000000 0.204004 1.166199
v 0.000000 0.449427 0.775611
v 0.000000 0.775611 0.449427
v 0.000000 1.166199 0.204004
v 0.000000 1.601607 0.051649
v 0.000000 2.060000 0.000000
v -12.660000 2.060000 0.000000
v -12.660000 1.601607 0.051649
v -12.660000 1.166199 0.204004
v -12.660000 0.775611 0.449427
v -12.660000 0.449427 0.775611
v -12.660000 0.204004 1.166199
v -12.660000 0.051649 1.601607
v -12.660000 0.000000 2.060000
v 0.000000 6.000000 0.000000
v -12.660000 6.000000 0.000000
v -12.660000 0.000000 9.000000
v 0.000000 0.000000 9.000000
v 0.000000 -0.500000 9.000000
v -12.660000 -0.500000 9.000000
v 0.000000 -0.500000 -0.500000
v -12.660000 -0.500000 -0.500000
v 0.000000 6.000000 -0.500000
v -12.660000 6.000000 -0.500000
vt 32.156400 4.109517 0.000000
vt -0.000000 4.109517 0.000000
vt 32.156400 2.935370 0.000000
vt -0.000000 2.935370 0.000000
vt -0.000000 1.761222 0.000000
vt 32.156400 1.761222 0.000000
vt -0.000000 0.587074 0.000000
vt 32.156400 0.587074 0.000000
vt -0.000000 -0.587074 0.000000
vt 32.156400 -0.587074 0.000000
vt -0.000000 -1.761222 0.000000
vt 32.156400 -1.761222 0.000000
vt -0.000000 -2.935370 0.000000
vt 32.156400 -2.935370 0.000000
vt 32.156400 -4.109517 0.000000
vt 0.000000 -4.109517 0.000000
vt 5.232400 0.000000 0.000000
vt 15.240000 0.000000 0.000000
vt 5.232400 32.156400 0.000000
vt 15.240000 32.156400 0.000000
vt 17.627600 32.156400 0.000000
vt 0.000000 32.156400 0.000000
vt 17.627600 0.000000 0.000000
vt -0.000000 0.000000 0.000000
vt 0.000000 0.000000 0.000000
vt 1.270000 0.000000 0.000000
vt 0.000000 32.156400 0.000000
vt 1.270000 32.156400 0.000000
vt 0.000000 0.000000 0.000000
vt 24.130000 0.000000 0.000000
vt 0.000000 32.156400 0.000000
vt 24.130000 32.156400 0.000000
vt -0.000000 0.000000 0.000000
vt 16.510000 0.000000 0.000000
vt 0.000000 32.156400 0.000000
vt 16.510000 32.156400 0.000000
vt -0.000000 0.000000 0.000000
vt 1.270000 0.000000 0.000000
vt 0.000000 32.156400 0.000000
vt 1.270000 32.156400 0.000000
vt 10.795000 8.255000 0.000000
vt 10.795000 -1.752600 0.000000
vt 12.065000 8.255000 0.000000
vt 12.065000 -8.255000 0.000000
vt 10.663813 -2.916918 0.000000
vt 10.276829 -4.022853 0.000000
vt 9.653455 -5.014948 0.000000
vt 8.824948 -5.843455 0.000000
vt 7.832853 -6.466829 0.000000
vt 6.726918 -6.853813 0.000000
vt 5.562600 -6.985000 0.000000
vt -12.065000 -8.255000 0.000000
vt -12.065000 -6.985000 0.000000
vt -10.795000 8.255000 0.000000
vt -12.065000 8.255000 0.000000
vt -10.795000 -1.752600 0.000000
vt -12.065000 -8.255000 0.000000
vt -10.663813 -2.916918 0.000000
vt -10.276829 -4.022853 0.000000
vt -9.653455 -5.014948 0.000000
vt -8.824948 -5.843455 0.000000
vt -7.832853 -6.466829 0.000000
vt -6.726918 -6.853813 0.000000
vt -5.562600 -6.985000 0.000000
vt 12.065000 -8.255000 0.000000
vt 12.065000 -6.985000 0.000000
vn 0.000000 2.540000 0.000000
vn 0.000000 2.540000 0.000000
vn 0.000000 2.476317 0.565203
vn 0.000000 2.476317 0.565203
vn 0.000000 2.288461 1.102065
vn 0.000000 2.288461 1.102065
vn 0.000000 1.985852 1.583664
vn 0.000000 1.985852 1.583664
vn 0.000000 1.583664 1.985852
vn 0.000000 1.583664 1.985852
vn 0.000000 1.102065 2.288461
vn 0.000000 1.102065 2.288461
vn 0.000000 0.565203 2.476317
vn 0.000000 0.565203 2.476317
vn 0.000000 0.000000 2.540000
vn 0.000000 0.000000 2.540000
vn 0.000000 0.000000 2.540000
vn 0.000000 0.000000 2.540000
vn 0.000000 2.540000 0.000000
vn 0.000000 2.540000 0.000000
vn 0.000000 0.000000 2.540000
vn 0.000000 0.000000 2.540000
vn 0.000000 0.000000 2.540000
vn 0.000000 0.000000 2.540000
vn 0.000000 -2.540000 0.000000
vn 0.000000 -2.540000 0.000000
vn 0.000000 -2.540000 0.000000
vn 0.000000 -2.540000 0.000000
vn 0.000000 0.000000 -2.540000
vn 0.000000 0.000000 -2.540000
vn 0.000000 0.000000 -2.540000
vn 0.000000 0.000000 -2.540000
vn 0.000000 2.540000 0.000000
vn 0.000000 2.540000 0.000000
vn 0.000000 2.540000 0.000000
vn 0.000000 2.540000 0.000000
vn 2.540000 0.000000 0.000000
vn 2.540000 0.000000 0.000000
vn 2.540000 0.000000 0.000000
vn 2.540000 0.000000 0.000000
vn 2.540000 0.000000 0.000000
vn 2.540000 0.000000 0.000000
vn 2.540000 0.000000 0.000000
vn 2.540000 0.000000 0.000000
vn 2.540000 0.000000 0.000000
vn 2.540000 0.000000 0.000000
vn 2.540000 0.000000 0.000000
vn 2.540000 0.000000 0.000000
vn 2.540000 0.000000 0.000000
vn -2.540000 0.000000 0.000000
vn -2.540000 0.000000 0.000000
vn -2.540000 0.000000 0.000000
vn -2.540000 0.000000 0.000000
vn -2.540000 0.000000 0.000000
vn -2.540000 0.000000 0.000000
vn -2.540000 0.000000 0.000000
vn -2.540000 0.000000 0.000000
vn -2.540000 0.000000 0.000000
vn -2.540000 0.000000 0.000000
vn -2.540000 0.000000 0.000000
vn -2.540000 0.000000 0.000000
vn -2.540000 0.000000 0.000000
usemtl Steel_-_Satin
f 16/1/1 1/2/2 15/3/3
f 15/3/3 1/2/2 2/4/4
f 15/3/3 2/4/4 3/5/5
f 15/3/3 3/5/5 14/6/6
f 14/6/6 3/5/5 4/7/7
f 14/6/6 4/7/7 13/8/8
f 13/8/8 4/7/7 5/9/9
f 13/8/8 5/9/9 12/10/10
f 12/10/10 5/9/9 6/11/11
f 12/10/10 6/11/11 11/12/12
f 11/12/12 6/11/11 7/13/13
f 11/12/12 7/13/13 10/14/14
f 10/14/14 7/13/13 9/15/15
f 9/15/15 7/13/13 8/16/16
f 8/17/16 17/18/17 9/19/15
f 9/19/15 17/18/17 18/20/18
f 16/21/1 19/22/19 1/23/2
f 1/23/2 19/22/19 20/24/20
f 21/25/21 20/26/22 22/27/23
f 22/27/23 20/26/22 19/28/24
f 23/29/25 21/30/26 24/31/27
f 24/31/27 21/30/26 22/32/28
f 25/33/29 23/34/30 26/35/31
f 26/35/31 23/34/30 24/36/32
f 17/37/33 25/38/34 18/39/35
f 18/39/35 25/38/34 26/40/36
f 17/41/37 8/42/38 25/43/39
f 25/43/39 8/42/38 23/44/40
f 23/44/40 8/42/38 7/45/41
f 23/44/40 7/45/41 6/46/42
f 6/46/42 5/47/43 23/44/40
f 23/44/40 5/47/43 4/48/44
f 23/44/40 4/48/44 3/49/45
f 3/49/45 2/50/46 23/44/40
f 23/44/40 2/50/46 1/51/47
f 23/44/40 1/51/47 21/52/48
f 21/52/48 1/51/47 20/53/49
f 18/54/50 26/55/51 9/56/52
f 9/56/52 26/55/51 24/57/53
f 9/56/52 24/57/53 10/58/54
f 10/58/54 24/57/53 11/59/55
f 11/59/55 24/57/53 12/60/56
f 12/60/56 24/57/53 13/61/57
f 13/61/57 24/57/53 14/62/58
f 14/62/58 24/57/53 15/63/59
f 15/63/59 24/57/53 16/64/60
f 16/64/60 24/57/53 22/65/61
f 16/64/60 22/65/61 19/66/62
# 26 vertices
# 66 texture params
# 62 normals
# 48 facets

# 1 groups
